<svg width="17" height="13" viewBox="0 0 17 13" fill="none" xmlns="http://www.w3.org/2000/svg">
<g clip-path="url(#clip0_4409_1449)">
<g clip-path="url(#clip1_4409_1449)">
<g clip-path="url(#clip2_4409_1449)">
<path d="M16 5.58252H11C10.4477 5.58252 10 6.03023 10 6.58252C10 7.1348 10.4477 7.58252 11 7.58252H16C16.5523 7.58252 17 7.1348 17 6.58252C17 6.03023 16.5523 5.58252 16 5.58252Z" fill="#FFE6D0"/>
<path d="M6 11.5825C8.76142 11.5825 11 9.34394 11 6.58252C11 3.8211 8.76142 1.58252 6 1.58252C3.23858 1.58252 1 3.8211 1 6.58252C1 9.34394 3.23858 11.5825 6 11.5825Z" stroke="#FFE6D0" stroke-width="2"/>
</g>
</g>
</g>
<defs>
<clipPath id="clip0_4409_1449">
<rect width="17" height="12" fill="white" transform="translate(0 0.58252)"/>
</clipPath>
<clipPath id="clip1_4409_1449">
<rect width="17" height="12" fill="white" transform="translate(0 0.58252)"/>
</clipPath>
<clipPath id="clip2_4409_1449">
<rect width="17" height="12" fill="white" transform="translate(0 0.58252)"/>
</clipPath>
</defs>
</svg>
